<?xml version="1.0" encoding="utf-8"?>
<!-- Generator: Adobe Illustrator 22.0.0, SVG Export Plug-In . SVG Version: 6.00 Build 0)  -->
<svg version="1.1" id="Layer_1" xmlns="http://www.w3.org/2000/svg" xmlns:xlink="http://www.w3.org/1999/xlink" x="0px" y="0px"
	 viewBox="0 0 1310.9 595.5" style="enable-background:new 0 0 1310.9 595.5;" xml:space="preserve">
<style type="text/css">
	.st0{opacity:0.79;}
	.st1{fill:#2C2C2C;}
	.st2{fill:#FCFAFA;}
	.st3{opacity:0.77;}
	.st4{fill:#E8E8E8;}
	.st5{fill:#FAE90E;}
	.st6{fill:#8F8F8F;}
</style>
<g class="st0">
	<rect x="-3" y="595.3" class="st1" width="1317" height="598"/>
</g>
<g class="st0">
	<rect y="-1.7" class="st2" width="1311" height="598"/>
</g>
<g class="st3">
	<circle class="st4" cx="166.5" cy="457.8" r="251.5"/>
</g>
<g>
	<circle class="st2" cx="166.5" cy="467.8" r="141.5"/>
</g>
<g>
	<circle class="st5" cx="1231" cy="68.3" r="39"/>
</g>
<g>
	<circle class="st2" cx="1231" cy="68.8" r="21.9"/>
</g>
<g>
	<g>
		<path class="st5" d="M-180.7,425.7c1.9,0,1.9-3,0-3C-182.6,422.7-182.6,425.7-180.7,425.7L-180.7,425.7z"/>
	</g>
</g>
<polygon class="st6" points="1284.9,1154.6 1263,1141.8 1263,1167.4 "/>
<polygon class="st6" points="1285,1129 1263.1,1116.2 1263.1,1141.7 "/>
<polygon class="st6" points="1284.9,1103.6 1263,1090.8 1263,1116.4 "/>
<polygon class="st6" points="1285,1078 1263.1,1065.2 1263.1,1090.8 "/>
</svg>
