<?xml version="1.0" encoding="utf-8"?>
<!-- Generator: Adobe Illustrator 22.0.0, SVG Export Plug-In . SVG Version: 6.00 Build 0)  -->
<svg version="1.1" id="Layer_1" xmlns="http://www.w3.org/2000/svg" xmlns:xlink="http://www.w3.org/1999/xlink" x="0px" y="0px"
	 viewBox="0 0 1120.4 595.1" style="enable-background:new 0 0 1120.4 595.1;" xml:space="preserve">
<style type="text/css">
	.st0{fill:#FCFAFA;}
	.st1{opacity:0.79;}
	.st2{fill:#FAE90E;}
	.st3{fill:#2C2C2C;stroke:#2C2C2C;stroke-width:3;stroke-miterlimit:10;}
</style>
<g>
	<rect x="-6" class="st0" width="1130.6" height="596.5"/>
</g>
<g>
	<rect x="-6" class="st0" width="1117.1" height="596.5"/>
</g>
<g class="st1">
	<rect y="-599.9" class="st0" width="1311" height="598"/>
</g>
<g>
	<g>
		<path class="st2" d="M-180.7-172.5c1.9,0,1.9-3,0-3C-182.6-175.5-182.6-172.5-180.7-172.5L-180.7-172.5z"/>
	</g>
</g>
<g>
	<circle cx="920.3" cy="533.7" r="8"/>
</g>
<g>
	<line class="st3" x1="140.9" y1="535.2" x2="155.4" y2="556.9"/>
	<line class="st3" x1="129.8" y1="530.9" x2="144.4" y2="552.6"/>
	<line class="st3" x1="140.9" y1="535.2" x2="155.4" y2="556.9"/>
	<line class="st3" x1="129.8" y1="530.9" x2="144.4" y2="552.6"/>
	<line class="st3" x1="123.4" y1="535.1" x2="138" y2="556.8"/>
	<line class="st3" x1="112.3" y1="530.8" x2="126.9" y2="552.5"/>
	<line class="st3" x1="108.7" y1="537.3" x2="123.3" y2="559"/>
	<line class="st3" x1="97.6" y1="533" x2="112.2" y2="554.7"/>
	<line class="st3" x1="108.7" y1="537.3" x2="123.3" y2="559"/>
	<line class="st3" x1="97.6" y1="533" x2="112.2" y2="554.7"/>
	<line class="st3" x1="91.3" y1="537.1" x2="105.9" y2="558.8"/>
	<line class="st3" x1="80.2" y1="532.9" x2="94.8" y2="554.6"/>
	<line class="st3" x1="74.9" y1="537.3" x2="89.5" y2="559"/>
	<line class="st3" x1="63.8" y1="533" x2="78.4" y2="554.7"/>
	<line class="st3" x1="74.9" y1="537.3" x2="89.5" y2="559"/>
	<line class="st3" x1="63.8" y1="533" x2="78.4" y2="554.7"/>
	<line class="st3" x1="57.4" y1="537.2" x2="72" y2="558.9"/>
	<line class="st3" x1="46.4" y1="532.9" x2="60.9" y2="554.6"/>
	<line class="st3" x1="42.7" y1="539.3" x2="57.3" y2="561.1"/>
	<line class="st3" x1="31.6" y1="535.1" x2="46.2" y2="556.8"/>
	<line class="st3" x1="42.7" y1="539.3" x2="57.3" y2="561.1"/>
	<line class="st3" x1="31.6" y1="535.1" x2="46.2" y2="556.8"/>
	<line class="st3" x1="25.3" y1="539.2" x2="39.9" y2="560.9"/>
	<line class="st3" x1="14.2" y1="535" x2="28.8" y2="556.7"/>
</g>
<g>
	<g>
		<circle class="st2" cx="912.3" cy="69" r="39"/>
	</g>
	<g>
		<circle class="st0" cx="912.3" cy="69.5" r="21.9"/>
	</g>
	<line class="st3" x1="968.3" y1="58.8" x2="982.9" y2="80.5"/>
	<line class="st3" x1="957.2" y1="54.5" x2="971.8" y2="76.3"/>
	<line class="st3" x1="968.3" y1="58.8" x2="982.9" y2="80.5"/>
	<line class="st3" x1="957.2" y1="54.5" x2="971.8" y2="76.3"/>
	<line class="st3" x1="950.9" y1="58.7" x2="965.5" y2="80.4"/>
	<line class="st3" x1="939.8" y1="54.4" x2="954.4" y2="76.1"/>
	<line class="st3" x1="936.2" y1="60.9" x2="950.7" y2="82.6"/>
	<line class="st3" x1="925.1" y1="56.6" x2="939.6" y2="78.3"/>
	<line class="st3" x1="936.2" y1="60.9" x2="950.7" y2="82.6"/>
	<line class="st3" x1="925.1" y1="56.6" x2="939.6" y2="78.3"/>
	<line class="st3" x1="918.7" y1="60.7" x2="933.3" y2="82.5"/>
	<line class="st3" x1="907.6" y1="56.5" x2="922.2" y2="78.2"/>
	<line class="st3" x1="902.3" y1="60.9" x2="916.9" y2="82.6"/>
	<line class="st3" x1="891.2" y1="56.6" x2="905.8" y2="78.4"/>
	<line class="st3" x1="902.3" y1="60.9" x2="916.9" y2="82.6"/>
	<line class="st3" x1="891.2" y1="56.6" x2="905.8" y2="78.4"/>
	<line class="st3" x1="884.9" y1="60.8" x2="899.5" y2="82.5"/>
	<line class="st3" x1="873.8" y1="56.5" x2="888.4" y2="78.2"/>
	<line class="st3" x1="870.2" y1="63" x2="884.8" y2="84.7"/>
	<line class="st3" x1="859.1" y1="58.7" x2="873.7" y2="80.4"/>
	<line class="st3" x1="870.2" y1="63" x2="884.8" y2="84.7"/>
	<line class="st3" x1="859.1" y1="58.7" x2="873.7" y2="80.4"/>
	<line class="st3" x1="852.7" y1="62.8" x2="867.3" y2="84.6"/>
	<line class="st3" x1="841.6" y1="58.6" x2="856.2" y2="80.3"/>
</g>
</svg>
