<?xml version="1.0" encoding="utf-8"?>
<!-- Generator: Adobe Illustrator 22.0.0, SVG Export Plug-In . SVG Version: 6.00 Build 0)  -->
<svg version="1.1" id="Layer_1" xmlns="http://www.w3.org/2000/svg" xmlns:xlink="http://www.w3.org/1999/xlink" x="0px" y="0px"
	 viewBox="0 0 1310.9 597.9" style="enable-background:new 0 0 1310.9 597.9;" xml:space="preserve">
<style type="text/css">
	.st0{opacity:0.79;}
	.st1{fill:#2C2C2C;}
	.st2{fill:#FCFAFA;stroke:#000000;stroke-width:0.5;stroke-miterlimit:10;}
	.st3{fill:#FAE90E;}
	.st4{fill:#8F8F8F;}
	.st5{fill:#FFFFFF;}
	.st6{fill:#FFFFFF;stroke:#FFFFFF;stroke-width:3;stroke-miterlimit:10;}
</style>
<g class="st0">
	<rect y="598.7" class="st1" width="1317" height="598"/>
</g>
<g>
	<rect y="0.7" class="st2" width="1311" height="598"/>
</g>
<g>
	<circle class="st3" cx="1307.5" cy="297.6" r="251.5"/>
</g>
<g>
	<circle class="st2" cx="1307.5" cy="307.6" r="141.5"/>
</g>
<g>
	<g>
		<path class="st3" d="M-180.7,428.1c1.9,0,1.9-3,0-3C-182.6,425.1-182.6,428.1-180.7,428.1L-180.7,428.1z"/>
	</g>
</g>
<polygon class="st4" points="1284.9,1157 1263,1144.2 1263,1169.8 "/>
<polygon class="st4" points="1285,1131.4 1263.1,1118.6 1263.1,1144.1 "/>
<polygon class="st4" points="1284.9,1106 1263,1093.2 1263,1118.8 "/>
<polygon class="st4" points="1285,1080.4 1263.1,1067.6 1263.1,1093.2 "/>
<g>
	<circle class="st5" cx="1169.6" cy="1115.7" r="22.5"/>
</g>
<g>
	<circle cx="1170" cy="1116.6" r="8"/>
</g>
<line class="st6" x1="157.2" y1="1148.2" x2="171.8" y2="1170"/>
<line class="st6" x1="146.2" y1="1144" x2="160.7" y2="1165.7"/>
<line class="st6" x1="157.2" y1="1148.2" x2="171.8" y2="1170"/>
<line class="st6" x1="146.2" y1="1144" x2="160.7" y2="1165.7"/>
<line class="st6" x1="139.8" y1="1148.1" x2="154.4" y2="1169.8"/>
<line class="st6" x1="128.7" y1="1143.9" x2="143.3" y2="1165.6"/>
<line class="st6" x1="125.1" y1="1150.3" x2="139.7" y2="1172"/>
<line class="st6" x1="114" y1="1146.1" x2="128.6" y2="1167.8"/>
<line class="st6" x1="125.1" y1="1150.3" x2="139.7" y2="1172"/>
<line class="st6" x1="114" y1="1146.1" x2="128.6" y2="1167.8"/>
<line class="st6" x1="107.7" y1="1150.2" x2="122.2" y2="1171.9"/>
<line class="st6" x1="96.6" y1="1145.9" x2="111.2" y2="1167.6"/>
<line class="st6" x1="91.3" y1="1150.3" x2="105.9" y2="1172.1"/>
<line class="st6" x1="80.2" y1="1146.1" x2="94.8" y2="1167.8"/>
<line class="st6" x1="91.3" y1="1150.3" x2="105.9" y2="1172.1"/>
<line class="st6" x1="80.2" y1="1146.1" x2="94.8" y2="1167.8"/>
<line class="st6" x1="73.8" y1="1150.2" x2="88.4" y2="1171.9"/>
<line class="st6" x1="62.7" y1="1146" x2="77.3" y2="1167.7"/>
<line class="st6" x1="59.1" y1="1152.4" x2="73.7" y2="1174.1"/>
<line class="st6" x1="48" y1="1148.1" x2="62.6" y2="1169.9"/>
<line class="st6" x1="59.1" y1="1152.4" x2="73.7" y2="1174.1"/>
<line class="st6" x1="48" y1="1148.1" x2="62.6" y2="1169.9"/>
<line class="st6" x1="41.7" y1="1152.3" x2="56.3" y2="1174"/>
<line class="st6" x1="30.6" y1="1148" x2="45.2" y2="1169.7"/>
<g>
	<circle class="st5" cx="1310.9" cy="307.6" r="22.5"/>
</g>
<g>
	<circle cx="1311.3" cy="308.5" r="8"/>
</g>
</svg>
