<?xml version="1.0" encoding="utf-8"?>
<!-- Generator: Adobe Illustrator 22.0.0, SVG Export Plug-In . SVG Version: 6.00 Build 0)  -->
<svg version="1.1" id="Layer_1" xmlns="http://www.w3.org/2000/svg" xmlns:xlink="http://www.w3.org/1999/xlink" x="0px" y="0px"
	 viewBox="0 0 1310.9 600.8" style="enable-background:new 0 0 1310.9 600.8;" xml:space="preserve">
<style type="text/css">
	.st0{opacity:0.79;}
	.st1{fill:#2C2C2C;}
	.st2{fill:#FCFAFA;}
	.st3{fill:#FAE90E;}
	.st4{fill:#8F8F8F;}
</style>
<g class="st0">
	<rect x="0" y="-0.2" class="st1" width="1311" height="601"/>
</g>
<g class="st0">
	<rect y="-597.2" class="st2" width="1311" height="598"/>
</g>
<g>
	<circle class="st3" cx="166.5" cy="-137.7" r="251.5"/>
</g>
<g>
	<circle class="st2" cx="166.5" cy="-127.7" r="141.5"/>
</g>
<g>
	<circle class="st3" cx="1231" cy="-527.2" r="39"/>
</g>
<g>
	<circle class="st2" cx="1231" cy="-526.7" r="21.9"/>
</g>
<g>
	<g>
		<path class="st3" d="M-180.7-169.8c1.9,0,1.9-3,0-3C-182.6-172.8-182.6-169.8-180.7-169.8L-180.7-169.8z"/>
	</g>
</g>
<polygon class="st4" points="1284.9,559 1263,546.3 1263,571.8 "/>
<polygon class="st4" points="1285,533.4 1263.1,520.7 1263.1,546.2 "/>
<polygon class="st4" points="1284.9,508.1 1263,495.3 1263,520.8 "/>
<polygon class="st4" points="1285,482.4 1263.1,469.7 1263.1,495.2 "/>
</svg>
